<?xml version="1.0" encoding="utf-8" ?>
<svg xmlns="http://www.w3.org/2000/svg" xmlns:ev="http://www.w3.org/2001/xml-events" xmlns:xlink="http://www.w3.org/1999/xlink" baseProfile="full" height="937.2px" version="1.1" width="5343.02px">
    <defs/>
    <g transform="translate(5,0)">
        <line fill="none" stroke="black" x1="5" x2="3994" y1="14.6" y2="14.6"/>
        <rect fill="#000080" height="19px" opacity="1" rx="10" ry="10" stroke="none" width="168px" x="6" y="5.0"/>
        <rect fill="#00ffff" height="19px" opacity="1" rx="10" ry="10" stroke="none" width="56px" x="178" y="5.0"/>
        <rect fill="#0000ff" height="19px" opacity="1" rx="10" ry="10" stroke="none" width="372px" x="699" y="5.0"/>
        <rect fill="#ff0000" height="19px" opacity="1" rx="10" ry="10" stroke="none" width="200px" x="1328" y="5.0"/>
        <rect fill="#008080" height="19px" opacity="1" rx="10" ry="10" stroke="none" width="85px" x="1541" y="5.0"/>
        <rect fill="#00ff00" height="19px" opacity="1" rx="10" ry="10" stroke="none" width="211px" x="1685" y="5.0"/>
        <rect fill="#800000" height="19px" opacity="1" rx="10" ry="10" stroke="none" width="141px" x="1902" y="5.0"/>
        <rect fill="#008000" height="19px" opacity="1" rx="10" ry="10" stroke="none" width="115px" x="2080" y="5.0"/>
        <rect fill="#ff00ff" height="19px" opacity="1" rx="10" ry="10" stroke="none" width="142px" x="2229" y="5.0"/>
        <rect fill="#ffff00" height="19px" opacity="1" rx="10" ry="10" stroke="none" width="225px" x="3555" y="5.0"/>
        <line fill="none" stroke="black" x1="5" x2="3995" y1="36.8" y2="36.8"/>
        <rect fill="#000080" height="19px" opacity="1" rx="10" ry="10" stroke="none" width="168px" x="6" y="27.2"/>
        <rect fill="#00ffff" height="19px" opacity="1" rx="10" ry="10" stroke="none" width="56px" x="175" y="27.2"/>
        <rect fill="#0000ff" height="19px" opacity="1" rx="10" ry="10" stroke="none" width="370px" x="696" y="27.2"/>
        <rect fill="#ff0000" height="19px" opacity="1" rx="10" ry="10" stroke="none" width="200px" x="1323" y="27.2"/>
        <rect fill="#008080" height="19px" opacity="1" rx="10" ry="10" stroke="none" width="88px" x="1534" y="27.2"/>
        <rect fill="#00ff00" height="19px" opacity="1" rx="10" ry="10" stroke="none" width="211px" x="1685" y="27.2"/>
        <rect fill="#808000" height="19px" opacity="1" rx="10" ry="10" stroke="none" width="134px" x="1908" y="27.2"/>
        <rect fill="#008000" height="19px" opacity="1" rx="10" ry="10" stroke="none" width="117px" x="2078" y="27.2"/>
        <rect fill="#ff00ff" height="19px" opacity="1" rx="10" ry="10" stroke="none" width="141px" x="2229" y="27.2"/>
        <rect fill="#ffff00" height="19px" opacity="1" rx="10" ry="10" stroke="none" width="251px" x="3553" y="27.2"/>
        <line fill="none" stroke="black" x1="5" x2="3994" y1="59.0" y2="59.0"/>
        <rect fill="#000080" height="19px" opacity="1" rx="10" ry="10" stroke="none" width="168px" x="6" y="49.4"/>
        <rect fill="#00ffff" height="19px" opacity="1" rx="10" ry="10" stroke="none" width="56px" x="178" y="49.4"/>
        <rect fill="#0000ff" height="19px" opacity="1" rx="10" ry="10" stroke="none" width="372px" x="699" y="49.4"/>
        <rect fill="#ff0000" height="19px" opacity="1" rx="10" ry="10" stroke="none" width="200px" x="1328" y="49.4"/>
        <rect fill="#008080" height="19px" opacity="1" rx="10" ry="10" stroke="none" width="85px" x="1541" y="49.4"/>
        <rect fill="#00ff00" height="19px" opacity="1" rx="10" ry="10" stroke="none" width="211px" x="1685" y="49.4"/>
        <rect fill="#800000" height="19px" opacity="1" rx="10" ry="10" stroke="none" width="141px" x="1902" y="49.4"/>
        <rect fill="#008000" height="19px" opacity="1" rx="10" ry="10" stroke="none" width="115px" x="2080" y="49.4"/>
        <rect fill="#ff00ff" height="19px" opacity="1" rx="10" ry="10" stroke="none" width="142px" x="2229" y="49.4"/>
        <rect fill="#ffff00" height="19px" opacity="1" rx="10" ry="10" stroke="none" width="225px" x="3555" y="49.4"/>
        <line fill="none" stroke="black" x1="5" x2="4046" y1="81.19999999999999" y2="81.19999999999999"/>
        <rect fill="#000040" height="19px" opacity="1" rx="10" ry="10" stroke="none" width="148px" x="58" y="71.6"/>
        <rect fill="#00ffff" height="19px" opacity="1" rx="10" ry="10" stroke="none" width="56px" x="230" y="71.6"/>
        <rect fill="#0000ff" height="19px" opacity="1" rx="10" ry="10" stroke="none" width="372px" x="751" y="71.6"/>
        <rect fill="#ff0000" height="19px" opacity="1" rx="10" ry="10" stroke="none" width="200px" x="1380" y="71.6"/>
        <rect fill="#008080" height="19px" opacity="1" rx="10" ry="10" stroke="none" width="85px" x="1593" y="71.6"/>
        <rect fill="#00ff00" height="19px" opacity="1" rx="10" ry="10" stroke="none" width="211px" x="1737" y="71.6"/>
        <rect fill="#800000" height="19px" opacity="1" rx="10" ry="10" stroke="none" width="141px" x="1954" y="71.6"/>
        <rect fill="#008000" height="19px" opacity="1" rx="10" ry="10" stroke="none" width="115px" x="2132" y="71.6"/>
        <rect fill="#ff00ff" height="19px" opacity="1" rx="10" ry="10" stroke="none" width="142px" x="2281" y="71.6"/>
        <rect fill="#ffff00" height="19px" opacity="1" rx="10" ry="10" stroke="none" width="225px" x="3607" y="71.6"/>
        <line fill="none" stroke="black" x1="5" x2="3994" y1="103.39999999999999" y2="103.39999999999999"/>
        <rect fill="#000080" height="19px" opacity="1" rx="10" ry="10" stroke="none" width="168px" x="6" y="93.8"/>
        <rect fill="#00ffff" height="19px" opacity="1" rx="10" ry="10" stroke="none" width="56px" x="178" y="93.8"/>
        <rect fill="#0000ff" height="19px" opacity="1" rx="10" ry="10" stroke="none" width="372px" x="699" y="93.8"/>
        <rect fill="#ff0000" height="19px" opacity="1" rx="10" ry="10" stroke="none" width="200px" x="1328" y="93.8"/>
        <rect fill="#008080" height="19px" opacity="1" rx="10" ry="10" stroke="none" width="85px" x="1541" y="93.8"/>
        <rect fill="#00ff00" height="19px" opacity="1" rx="10" ry="10" stroke="none" width="211px" x="1685" y="93.8"/>
        <rect fill="#800000" height="19px" opacity="1" rx="10" ry="10" stroke="none" width="141px" x="1902" y="93.8"/>
        <rect fill="#008000" height="19px" opacity="1" rx="10" ry="10" stroke="none" width="115px" x="2080" y="93.8"/>
        <rect fill="#ff00ff" height="19px" opacity="1" rx="10" ry="10" stroke="none" width="142px" x="2229" y="93.8"/>
        <rect fill="#ffff00" height="19px" opacity="1" rx="10" ry="10" stroke="none" width="225px" x="3555" y="93.8"/>
        <line fill="none" stroke="black" x1="5" x2="4007" y1="125.6" y2="125.6"/>
        <rect fill="#000080" height="19px" opacity="1" rx="10" ry="10" stroke="none" width="168px" x="6" y="116.0"/>
        <rect fill="#00ffff" height="19px" opacity="1" rx="10" ry="10" stroke="none" width="53px" x="179" y="116.0"/>
        <rect fill="#0000ff" height="19px" opacity="1" rx="10" ry="10" stroke="none" width="370px" x="698" y="116.0"/>
        <rect fill="#ff0000" height="19px" opacity="1" rx="10" ry="10" stroke="none" width="200px" x="1326" y="116.0"/>
        <rect fill="#008080" height="19px" opacity="1" rx="10" ry="10" stroke="none" width="86px" x="1542" y="116.0"/>
        <rect fill="#00ff00" height="19px" opacity="1" rx="10" ry="10" stroke="none" width="211px" x="1695" y="116.0"/>
        <rect fill="#800000" height="19px" opacity="1" rx="10" ry="10" stroke="none" width="141px" x="1912" y="116.0"/>
        <rect fill="#008000" height="19px" opacity="1" rx="10" ry="10" stroke="none" width="117px" x="2088" y="116.0"/>
        <rect fill="#ff00ff" height="19px" opacity="1" rx="10" ry="10" stroke="none" width="141px" x="2239" y="116.0"/>
        <rect fill="#ffff00" height="19px" opacity="1" rx="10" ry="10" stroke="none" width="227px" x="3564" y="116.0"/>
        <line fill="none" stroke="black" x1="5" x2="3997" y1="147.79999999999998" y2="147.79999999999998"/>
        <rect fill="#000080" height="19px" opacity="1" rx="10" ry="10" stroke="none" width="168px" x="6" y="138.2"/>
        <rect fill="#00ffff" height="19px" opacity="1" rx="10" ry="10" stroke="none" width="51px" x="181" y="138.2"/>
        <rect fill="#0000ff" height="19px" opacity="1" rx="10" ry="10" stroke="none" width="369px" x="698" y="138.2"/>
        <rect fill="#ff0000" height="19px" opacity="1" rx="10" ry="10" stroke="none" width="200px" x="1325" y="138.2"/>
        <rect fill="#008080" height="19px" opacity="1" rx="10" ry="10" stroke="none" width="80px" x="1533" y="138.2"/>
        <rect fill="#00ff00" height="19px" opacity="1" rx="10" ry="10" stroke="none" width="211px" x="1688" y="138.2"/>
        <rect fill="#800000" height="19px" opacity="1" rx="10" ry="10" stroke="none" width="141px" x="1905" y="138.2"/>
        <rect fill="#008000" height="19px" opacity="1" rx="10" ry="10" stroke="none" width="117px" x="2081" y="138.2"/>
        <rect fill="#ff00ff" height="19px" opacity="1" rx="10" ry="10" stroke="none" width="142px" x="2232" y="138.2"/>
        <rect fill="#ffff00" height="19px" opacity="1" rx="10" ry="10" stroke="none" width="230px" x="3558" y="138.2"/>
        <line fill="none" stroke="black" x1="5" x2="4007" y1="170.0" y2="170.0"/>
        <rect fill="#000080" height="19px" opacity="1" rx="10" ry="10" stroke="none" width="168px" x="6" y="160.4"/>
        <rect fill="#00ffff" height="19px" opacity="1" rx="10" ry="10" stroke="none" width="53px" x="179" y="160.4"/>
        <rect fill="#0000ff" height="19px" opacity="1" rx="10" ry="10" stroke="none" width="370px" x="698" y="160.4"/>
        <rect fill="#ff0000" height="19px" opacity="1" rx="10" ry="10" stroke="none" width="200px" x="1326" y="160.4"/>
        <rect fill="#008080" height="19px" opacity="1" rx="10" ry="10" stroke="none" width="86px" x="1542" y="160.4"/>
        <rect fill="#00ff00" height="19px" opacity="1" rx="10" ry="10" stroke="none" width="211px" x="1695" y="160.4"/>
        <rect fill="#800000" height="19px" opacity="1" rx="10" ry="10" stroke="none" width="141px" x="1912" y="160.4"/>
        <rect fill="#008000" height="19px" opacity="1" rx="10" ry="10" stroke="none" width="117px" x="2088" y="160.4"/>
        <rect fill="#ff00ff" height="19px" opacity="1" rx="10" ry="10" stroke="none" width="141px" x="2239" y="160.4"/>
        <rect fill="#ffff00" height="19px" opacity="1" rx="10" ry="10" stroke="none" width="227px" x="3564" y="160.4"/>
        <line fill="none" stroke="black" x1="5" x2="4026" y1="192.2" y2="192.2"/>
        <rect fill="#000080" height="19px" opacity="1" rx="10" ry="10" stroke="none" width="168px" x="6" y="182.6"/>
        <rect fill="#00ffff" height="19px" opacity="1" rx="10" ry="10" stroke="none" width="54px" x="179" y="182.6"/>
        <rect fill="#0000ff" height="19px" opacity="1" rx="10" ry="10" stroke="none" width="368px" x="700" y="182.6"/>
        <rect fill="#ff0000" height="19px" opacity="1" rx="10" ry="10" stroke="none" width="200px" x="1326" y="182.6"/>
        <rect fill="#008080" height="19px" opacity="1" rx="10" ry="10" stroke="none" width="89px" x="1539" y="182.6"/>
        <rect fill="#00ff00" height="19px" opacity="1" rx="10" ry="10" stroke="none" width="211px" x="1716" y="182.6"/>
        <rect fill="#800000" height="19px" opacity="1" rx="10" ry="10" stroke="none" width="141px" x="1933" y="182.6"/>
        <rect fill="#008000" height="19px" opacity="1" rx="10" ry="10" stroke="none" width="117px" x="2109" y="182.6"/>
        <rect fill="#ff00ff" height="19px" opacity="1" rx="10" ry="10" stroke="none" width="141px" x="2260" y="182.6"/>
        <rect fill="#ffff00" height="19px" opacity="1" rx="10" ry="10" stroke="none" width="228px" x="3586" y="182.6"/>
        <line fill="none" stroke="black" x1="5" x2="4007" y1="214.39999999999998" y2="214.39999999999998"/>
        <rect fill="#000080" height="19px" opacity="1" rx="10" ry="10" stroke="none" width="168px" x="6" y="204.79999999999998"/>
        <rect fill="#00ffff" height="19px" opacity="1" rx="10" ry="10" stroke="none" width="53px" x="179" y="204.79999999999998"/>
        <rect fill="#0000ff" height="19px" opacity="1" rx="10" ry="10" stroke="none" width="370px" x="698" y="204.79999999999998"/>
        <rect fill="#ff0000" height="19px" opacity="1" rx="10" ry="10" stroke="none" width="200px" x="1326" y="204.79999999999998"/>
        <rect fill="#008080" height="19px" opacity="1" rx="10" ry="10" stroke="none" width="86px" x="1542" y="204.79999999999998"/>
        <rect fill="#00ff00" height="19px" opacity="1" rx="10" ry="10" stroke="none" width="211px" x="1695" y="204.79999999999998"/>
        <rect fill="#800000" height="19px" opacity="1" rx="10" ry="10" stroke="none" width="141px" x="1912" y="204.79999999999998"/>
        <rect fill="#008000" height="19px" opacity="1" rx="10" ry="10" stroke="none" width="117px" x="2088" y="204.79999999999998"/>
        <rect fill="#ff00ff" height="19px" opacity="1" rx="10" ry="10" stroke="none" width="141px" x="2239" y="204.79999999999998"/>
        <rect fill="#ffff00" height="19px" opacity="1" rx="10" ry="10" stroke="none" width="227px" x="3564" y="204.79999999999998"/>
        <line fill="none" stroke="black" x1="5" x2="4010" y1="236.6" y2="236.6"/>
        <rect fill="#000080" height="19px" opacity="1" rx="10" ry="10" stroke="none" width="168px" x="6" y="227.0"/>
        <rect fill="#00ffff" height="19px" opacity="1" rx="10" ry="10" stroke="none" width="54px" x="179" y="227.0"/>
        <rect fill="#0000ff" height="19px" opacity="1" rx="10" ry="10" stroke="none" width="368px" x="700" y="227.0"/>
        <rect fill="#ff0000" height="19px" opacity="1" rx="10" ry="10" stroke="none" width="200px" x="1326" y="227.0"/>
        <rect fill="#008080" height="19px" opacity="1" rx="10" ry="10" stroke="none" width="71px" x="1538" y="227.0"/>
        <rect fill="#00ff00" height="19px" opacity="1" rx="10" ry="10" stroke="none" width="211px" x="1700" y="227.0"/>
        <rect fill="#800000" height="19px" opacity="1" rx="10" ry="10" stroke="none" width="141px" x="1917" y="227.0"/>
        <rect fill="#008000" height="19px" opacity="1" rx="10" ry="10" stroke="none" width="117px" x="2093" y="227.0"/>
        <rect fill="#ff00ff" height="19px" opacity="1" rx="10" ry="10" stroke="none" width="141px" x="2244" y="227.0"/>
        <rect fill="#ffff00" height="19px" opacity="1" rx="10" ry="10" stroke="none" width="228px" x="3570" y="227.0"/>
        <line fill="none" stroke="black" x1="5" x2="4023" y1="258.8" y2="258.8"/>
        <rect fill="#000080" height="19px" opacity="1" rx="10" ry="10" stroke="none" width="168px" x="6" y="249.2"/>
        <rect fill="#00ffff" height="19px" opacity="1" rx="10" ry="10" stroke="none" width="54px" x="179" y="249.2"/>
        <rect fill="#0000ff" height="19px" opacity="1" rx="10" ry="10" stroke="none" width="368px" x="700" y="249.2"/>
        <rect fill="#ff0000" height="19px" opacity="1" rx="10" ry="10" stroke="none" width="200px" x="1318" y="249.2"/>
        <rect fill="#008080" height="19px" opacity="1" rx="10" ry="10" stroke="none" width="89px" x="1531" y="249.2"/>
        <rect fill="#00ff00" height="19px" opacity="1" rx="10" ry="10" stroke="none" width="211px" x="1713" y="249.2"/>
        <rect fill="#800000" height="19px" opacity="1" rx="10" ry="10" stroke="none" width="141px" x="1930" y="249.2"/>
        <rect fill="#008000" height="19px" opacity="1" rx="10" ry="10" stroke="none" width="117px" x="2106" y="249.2"/>
        <rect fill="#ff00ff" height="19px" opacity="1" rx="10" ry="10" stroke="none" width="141px" x="2257" y="249.2"/>
        <rect fill="#ffff00" height="19px" opacity="1" rx="10" ry="10" stroke="none" width="228px" x="3583" y="249.2"/>
        <line fill="none" stroke="black" x1="5" x2="4025" y1="281.0" y2="281.0"/>
        <rect fill="#000080" height="19px" opacity="1" rx="10" ry="10" stroke="none" width="168px" x="6" y="271.4"/>
        <rect fill="#00ffff" height="19px" opacity="1" rx="10" ry="10" stroke="none" width="54px" x="179" y="271.4"/>
        <rect fill="#0000ff" height="19px" opacity="1" rx="10" ry="10" stroke="none" width="368px" x="700" y="271.4"/>
        <rect fill="#ff0000" height="19px" opacity="1" rx="10" ry="10" stroke="none" width="200px" x="1326" y="271.4"/>
        <rect fill="#008080" height="19px" opacity="1" rx="10" ry="10" stroke="none" width="85px" x="1551" y="271.4"/>
        <rect fill="#00ff00" height="19px" opacity="1" rx="10" ry="10" stroke="none" width="211px" x="1715" y="271.4"/>
        <rect fill="#800000" height="19px" opacity="1" rx="10" ry="10" stroke="none" width="141px" x="1932" y="271.4"/>
        <rect fill="#008000" height="19px" opacity="1" rx="10" ry="10" stroke="none" width="117px" x="2108" y="271.4"/>
        <rect fill="#ff00ff" height="19px" opacity="1" rx="10" ry="10" stroke="none" width="141px" x="2259" y="271.4"/>
        <rect fill="#ffff00" height="19px" opacity="1" rx="10" ry="10" stroke="none" width="228px" x="3585" y="271.4"/>
        <line fill="none" stroke="black" x1="5" x2="4025" y1="303.2" y2="303.2"/>
        <rect fill="#000080" height="19px" opacity="1" rx="10" ry="10" stroke="none" width="168px" x="6" y="293.59999999999997"/>
        <rect fill="#00ffff" height="19px" opacity="1" rx="10" ry="10" stroke="none" width="54px" x="179" y="293.59999999999997"/>
        <rect fill="#0000ff" height="19px" opacity="1" rx="10" ry="10" stroke="none" width="368px" x="700" y="293.59999999999997"/>
        <rect fill="#ff0000" height="19px" opacity="1" rx="10" ry="10" stroke="none" width="200px" x="1326" y="293.59999999999997"/>
        <rect fill="#008080" height="19px" opacity="1" rx="10" ry="10" stroke="none" width="89px" x="1547" y="293.59999999999997"/>
        <rect fill="#00ff00" height="19px" opacity="1" rx="10" ry="10" stroke="none" width="211px" x="1714" y="293.59999999999997"/>
        <rect fill="#800000" height="19px" opacity="1" rx="10" ry="10" stroke="none" width="141px" x="1931" y="293.59999999999997"/>
        <rect fill="#008000" height="19px" opacity="1" rx="10" ry="10" stroke="none" width="117px" x="2107" y="293.59999999999997"/>
        <rect fill="#ff00ff" height="19px" opacity="1" rx="10" ry="10" stroke="none" width="141px" x="2258" y="293.59999999999997"/>
        <rect fill="#ffff00" height="19px" opacity="1" rx="10" ry="10" stroke="none" width="232px" x="3582" y="293.59999999999997"/>
        <line fill="none" stroke="black" x1="5" x2="4006" y1="325.40000000000003" y2="325.40000000000003"/>
        <rect fill="#000080" height="19px" opacity="1" rx="10" ry="10" stroke="none" width="168px" x="6" y="315.8"/>
        <rect fill="#00ffff" height="19px" opacity="1" rx="10" ry="10" stroke="none" width="54px" x="179" y="315.8"/>
        <rect fill="#0000ff" height="19px" opacity="1" rx="10" ry="10" stroke="none" width="368px" x="700" y="315.8"/>
        <rect fill="#ff0000" height="19px" opacity="1" rx="10" ry="10" stroke="none" width="200px" x="1326" y="315.8"/>
        <rect fill="#008080" height="19px" opacity="1" rx="10" ry="10" stroke="none" width="89px" x="1538" y="315.8"/>
        <rect fill="#00ff00" height="19px" opacity="1" rx="10" ry="10" stroke="none" width="211px" x="1696" y="315.8"/>
        <rect fill="#800000" height="19px" opacity="1" rx="10" ry="10" stroke="none" width="141px" x="1913" y="315.8"/>
        <rect fill="#008000" height="19px" opacity="1" rx="10" ry="10" stroke="none" width="117px" x="2089" y="315.8"/>
        <rect fill="#ff00ff" height="19px" opacity="1" rx="10" ry="10" stroke="none" width="141px" x="2240" y="315.8"/>
        <rect fill="#ffff00" height="19px" opacity="1" rx="10" ry="10" stroke="none" width="228px" x="3566" y="315.8"/>
        <line fill="none" stroke="black" x1="5" x2="4034" y1="347.6" y2="347.6"/>
        <rect fill="#000080" height="19px" opacity="1" rx="10" ry="10" stroke="none" width="168px" x="6" y="338.0"/>
        <rect fill="#00ffff" height="19px" opacity="1" rx="10" ry="10" stroke="none" width="53px" x="180" y="338.0"/>
        <rect fill="#0000ff" height="19px" opacity="1" rx="10" ry="10" stroke="none" width="368px" x="700" y="338.0"/>
        <rect fill="#ff0000" height="19px" opacity="1" rx="10" ry="10" stroke="none" width="200px" x="1326" y="338.0"/>
        <rect fill="#008080" height="19px" opacity="1" rx="10" ry="10" stroke="none" width="89px" x="1538" y="338.0"/>
        <rect fill="#00ff00" height="19px" opacity="1" rx="10" ry="10" stroke="none" width="211px" x="1724" y="338.0"/>
        <rect fill="#800000" height="19px" opacity="1" rx="10" ry="10" stroke="none" width="141px" x="1941" y="338.0"/>
        <rect fill="#008000" height="19px" opacity="1" rx="10" ry="10" stroke="none" width="117px" x="2117" y="338.0"/>
        <rect fill="#ff00ff" height="19px" opacity="1" rx="10" ry="10" stroke="none" width="141px" x="2268" y="338.0"/>
        <rect fill="#ffff00" height="19px" opacity="1" rx="10" ry="10" stroke="none" width="229px" x="3593" y="338.0"/>
        <line fill="none" stroke="black" x1="5" x2="4025" y1="369.8" y2="369.8"/>
        <rect fill="#000080" height="19px" opacity="1" rx="10" ry="10" stroke="none" width="168px" x="6" y="360.2"/>
        <rect fill="#00ffff" height="19px" opacity="1" rx="10" ry="10" stroke="none" width="54px" x="179" y="360.2"/>
        <rect fill="#0000ff" height="19px" opacity="1" rx="10" ry="10" stroke="none" width="368px" x="700" y="360.2"/>
        <rect fill="#ff0000" height="19px" opacity="1" rx="10" ry="10" stroke="none" width="200px" x="1326" y="360.2"/>
        <rect fill="#008080" height="19px" opacity="1" rx="10" ry="10" stroke="none" width="89px" x="1547" y="360.2"/>
        <rect fill="#00ff00" height="19px" opacity="1" rx="10" ry="10" stroke="none" width="211px" x="1714" y="360.2"/>
        <rect fill="#800000" height="19px" opacity="1" rx="10" ry="10" stroke="none" width="141px" x="1931" y="360.2"/>
        <rect fill="#008000" height="19px" opacity="1" rx="10" ry="10" stroke="none" width="117px" x="2107" y="360.2"/>
        <rect fill="#ff00ff" height="19px" opacity="1" rx="10" ry="10" stroke="none" width="141px" x="2258" y="360.2"/>
        <rect fill="#ffff00" height="19px" opacity="1" rx="10" ry="10" stroke="none" width="232px" x="3582" y="360.2"/>
        <line fill="none" stroke="black" x1="5" x2="3993" y1="392.0" y2="392.0"/>
        <rect fill="#000080" height="19px" opacity="1" rx="10" ry="10" stroke="none" width="168px" x="6" y="382.4"/>
        <rect fill="#00ffff" height="19px" opacity="1" rx="10" ry="10" stroke="none" width="56px" x="178" y="382.4"/>
        <rect fill="#0000ff" height="19px" opacity="1" rx="10" ry="10" stroke="none" width="372px" x="699" y="382.4"/>
        <rect fill="#ff0000" height="19px" opacity="1" rx="10" ry="10" stroke="none" width="200px" x="1328" y="382.4"/>
        <rect fill="#008080" height="19px" opacity="1" rx="10" ry="10" stroke="none" width="85px" x="1541" y="382.4"/>
        <rect fill="#00ff00" height="19px" opacity="1" rx="10" ry="10" stroke="none" width="211px" x="1685" y="382.4"/>
        <rect fill="#800000" height="19px" opacity="1" rx="10" ry="10" stroke="none" width="141px" x="1902" y="382.4"/>
        <rect fill="#008000" height="19px" opacity="1" rx="10" ry="10" stroke="none" width="115px" x="2080" y="382.4"/>
        <rect fill="#ff00ff" height="19px" opacity="1" rx="10" ry="10" stroke="none" width="142px" x="2229" y="382.4"/>
        <rect fill="#ffff00" height="19px" opacity="1" rx="10" ry="10" stroke="none" width="225px" x="3555" y="382.4"/>
        <line fill="none" stroke="black" x1="5" x2="3994" y1="414.2" y2="414.2"/>
        <rect fill="#000080" height="19px" opacity="1" rx="10" ry="10" stroke="none" width="168px" x="6" y="404.59999999999997"/>
        <rect fill="#00ffff" height="19px" opacity="1" rx="10" ry="10" stroke="none" width="56px" x="178" y="404.59999999999997"/>
        <rect fill="#0000ff" height="19px" opacity="1" rx="10" ry="10" stroke="none" width="372px" x="699" y="404.59999999999997"/>
        <rect fill="#ff0000" height="19px" opacity="1" rx="10" ry="10" stroke="none" width="200px" x="1328" y="404.59999999999997"/>
        <rect fill="#008080" height="19px" opacity="1" rx="10" ry="10" stroke="none" width="85px" x="1541" y="404.59999999999997"/>
        <rect fill="#00ff00" height="19px" opacity="1" rx="10" ry="10" stroke="none" width="211px" x="1685" y="404.59999999999997"/>
        <rect fill="#800000" height="19px" opacity="1" rx="10" ry="10" stroke="none" width="141px" x="1902" y="404.59999999999997"/>
        <rect fill="#008000" height="19px" opacity="1" rx="10" ry="10" stroke="none" width="115px" x="2080" y="404.59999999999997"/>
        <rect fill="#ff00ff" height="19px" opacity="1" rx="10" ry="10" stroke="none" width="142px" x="2229" y="404.59999999999997"/>
        <rect fill="#ffff00" height="19px" opacity="1" rx="10" ry="10" stroke="none" width="225px" x="3555" y="404.59999999999997"/>
        <line fill="none" stroke="black" x1="5" x2="3995" y1="436.40000000000003" y2="436.40000000000003"/>
        <rect fill="#000080" height="19px" opacity="1" rx="10" ry="10" stroke="none" width="168px" x="6" y="426.8"/>
        <rect fill="#00ffff" height="19px" opacity="1" rx="10" ry="10" stroke="none" width="56px" x="175" y="426.8"/>
        <rect fill="#0000ff" height="19px" opacity="1" rx="10" ry="10" stroke="none" width="370px" x="696" y="426.8"/>
        <rect fill="#ff0000" height="19px" opacity="1" rx="10" ry="10" stroke="none" width="200px" x="1323" y="426.8"/>
        <rect fill="#008080" height="19px" opacity="1" rx="10" ry="10" stroke="none" width="88px" x="1534" y="426.8"/>
        <rect fill="#00ff00" height="19px" opacity="1" rx="10" ry="10" stroke="none" width="211px" x="1685" y="426.8"/>
        <rect fill="#808000" height="19px" opacity="1" rx="10" ry="10" stroke="none" width="134px" x="1908" y="426.8"/>
        <rect fill="#008000" height="19px" opacity="1" rx="10" ry="10" stroke="none" width="117px" x="2078" y="426.8"/>
        <rect fill="#ff00ff" height="19px" opacity="1" rx="10" ry="10" stroke="none" width="141px" x="2229" y="426.8"/>
        <rect fill="#ffff00" height="19px" opacity="1" rx="10" ry="10" stroke="none" width="251px" x="3553" y="426.8"/>
        <line fill="none" stroke="black" x1="5" x2="4203" y1="458.6" y2="458.6"/>
        <rect fill="#000080" height="19px" opacity="1" rx="10" ry="10" stroke="none" width="168px" x="6" y="449.0"/>
        <rect fill="#008080" height="19px" opacity="1" rx="10" ry="10" stroke="none" width="89px" x="205" y="449.0"/>
        <rect fill="#000080" height="19px" opacity="1" rx="10" ry="10" stroke="none" width="165px" x="308" y="449.0"/>
        <rect fill="#00ffff" height="19px" opacity="1" rx="10" ry="10" stroke="none" width="56px" x="477" y="449.0"/>
        <rect fill="#0000ff" height="19px" opacity="1" rx="10" ry="10" stroke="none" width="370px" x="999" y="449.0"/>
        <rect fill="#ff0000" height="19px" opacity="1" rx="10" ry="10" stroke="none" width="200px" x="1627" y="449.0"/>
        <rect fill="#00ff00" height="19px" opacity="1" rx="10" ry="10" stroke="none" width="211px" x="1894" y="449.0"/>
        <rect fill="#800000" height="19px" opacity="1" rx="10" ry="10" stroke="none" width="141px" x="2111" y="449.0"/>
        <rect fill="#008000" height="19px" opacity="1" rx="10" ry="10" stroke="none" width="116px" x="2288" y="449.0"/>
        <rect fill="#ff00ff" height="19px" opacity="1" rx="10" ry="10" stroke="none" width="141px" x="2438" y="449.0"/>
        <rect fill="#ffff00" height="19px" opacity="1" rx="10" ry="10" stroke="none" width="230px" x="3763" y="449.0"/>
        <line fill="none" stroke="black" x1="5" x2="4203" y1="480.8" y2="480.8"/>
        <rect fill="#000080" height="19px" opacity="1" rx="10" ry="10" stroke="none" width="168px" x="6" y="471.2"/>
        <rect fill="#008080" height="19px" opacity="1" rx="10" ry="10" stroke="none" width="89px" x="205" y="471.2"/>
        <rect fill="#000080" height="19px" opacity="1" rx="10" ry="10" stroke="none" width="165px" x="308" y="471.2"/>
        <rect fill="#00ffff" height="19px" opacity="1" rx="10" ry="10" stroke="none" width="56px" x="477" y="471.2"/>
        <rect fill="#0000ff" height="19px" opacity="1" rx="10" ry="10" stroke="none" width="371px" x="998" y="471.2"/>
        <rect fill="#ff0000" height="19px" opacity="1" rx="10" ry="10" stroke="none" width="200px" x="1627" y="471.2"/>
        <rect fill="#00ff00" height="19px" opacity="1" rx="10" ry="10" stroke="none" width="211px" x="1894" y="471.2"/>
        <rect fill="#800000" height="19px" opacity="1" rx="10" ry="10" stroke="none" width="141px" x="2111" y="471.2"/>
        <rect fill="#008000" height="19px" opacity="1" rx="10" ry="10" stroke="none" width="115px" x="2289" y="471.2"/>
        <rect fill="#ff00ff" height="19px" opacity="1" rx="10" ry="10" stroke="none" width="142px" x="2438" y="471.2"/>
        <rect fill="#ffff00" height="19px" opacity="1" rx="10" ry="10" stroke="none" width="246px" x="3761" y="471.2"/>
        <line fill="none" stroke="black" x1="5" x2="4267" y1="503.0" y2="503.0"/>
        <rect fill="#000080" height="19px" opacity="1" rx="10" ry="10" stroke="none" width="168px" x="6" y="493.4"/>
        <rect fill="#008080" height="19px" opacity="1" rx="10" ry="10" stroke="none" width="89px" x="205" y="493.4"/>
        <rect fill="#00ffff" height="19px" opacity="1" rx="10" ry="10" stroke="none" width="36px" x="326" y="493.4"/>
        <rect fill="#000080" height="19px" opacity="1" rx="10" ry="10" stroke="none" width="157px" x="380" y="493.4"/>
        <rect fill="#00ffff" height="19px" opacity="1" rx="10" ry="10" stroke="none" width="56px" x="541" y="493.4"/>
        <rect fill="#0000ff" height="19px" opacity="1" rx="10" ry="10" stroke="none" width="371px" x="1062" y="493.4"/>
        <rect fill="#ff0000" height="19px" opacity="1" rx="10" ry="10" stroke="none" width="200px" x="1691" y="493.4"/>
        <rect fill="#00ff00" height="19px" opacity="1" rx="10" ry="10" stroke="none" width="211px" x="1958" y="493.4"/>
        <rect fill="#800000" height="19px" opacity="1" rx="10" ry="10" stroke="none" width="141px" x="2175" y="493.4"/>
        <rect fill="#008000" height="19px" opacity="1" rx="10" ry="10" stroke="none" width="115px" x="2353" y="493.4"/>
        <rect fill="#ff00ff" height="19px" opacity="1" rx="10" ry="10" stroke="none" width="142px" x="2502" y="493.4"/>
        <rect fill="#ffff00" height="19px" opacity="1" rx="10" ry="10" stroke="none" width="233px" x="3825" y="493.4"/>
        <line fill="none" stroke="black" x1="5" x2="4267" y1="525.1999999999999" y2="525.1999999999999"/>
        <rect fill="#000080" height="19px" opacity="1" rx="10" ry="10" stroke="none" width="168px" x="6" y="515.5999999999999"/>
        <rect fill="#008080" height="19px" opacity="1" rx="10" ry="10" stroke="none" width="88px" x="206" y="515.5999999999999"/>
        <rect fill="#00ffff" height="19px" opacity="1" rx="10" ry="10" stroke="none" width="36px" x="326" y="515.5999999999999"/>
        <rect fill="#000080" height="19px" opacity="1" rx="10" ry="10" stroke="none" width="157px" x="380" y="515.5999999999999"/>
        <rect fill="#00ffff" height="19px" opacity="1" rx="10" ry="10" stroke="none" width="56px" x="541" y="515.5999999999999"/>
        <rect fill="#0000ff" height="19px" opacity="1" rx="10" ry="10" stroke="none" width="371px" x="1062" y="515.5999999999999"/>
        <rect fill="#ff0000" height="19px" opacity="1" rx="10" ry="10" stroke="none" width="200px" x="1691" y="515.5999999999999"/>
        <rect fill="#00ff00" height="19px" opacity="1" rx="10" ry="10" stroke="none" width="211px" x="1958" y="515.5999999999999"/>
        <rect fill="#800000" height="19px" opacity="1" rx="10" ry="10" stroke="none" width="141px" x="2175" y="515.5999999999999"/>
        <rect fill="#008000" height="19px" opacity="1" rx="10" ry="10" stroke="none" width="115px" x="2353" y="515.5999999999999"/>
        <rect fill="#ff00ff" height="19px" opacity="1" rx="10" ry="10" stroke="none" width="142px" x="2502" y="515.5999999999999"/>
        <rect fill="#ffff00" height="19px" opacity="1" rx="10" ry="10" stroke="none" width="232px" x="3825" y="515.5999999999999"/>
        <line fill="none" stroke="black" x1="5" x2="3981" y1="547.4" y2="547.4"/>
        <rect fill="#000080" height="19px" opacity="1" rx="10" ry="10" stroke="none" width="168px" x="6" y="537.8"/>
        <rect fill="#00ffff" height="19px" opacity="1" rx="10" ry="10" stroke="none" width="55px" x="179" y="537.8"/>
        <rect fill="#0000ff" height="19px" opacity="1" rx="10" ry="10" stroke="none" width="369px" x="701" y="537.8"/>
        <rect fill="#ff0000" height="19px" opacity="1" rx="10" ry="10" stroke="none" width="200px" x="1329" y="537.8"/>
        <rect fill="#800080" height="19px" opacity="1" rx="10" ry="10" stroke="none" width="72px" x="1598" y="537.8"/>
        <rect fill="#00ff00" height="19px" opacity="1" rx="10" ry="10" stroke="none" width="211px" x="1672" y="537.8"/>
        <rect fill="#800000" height="19px" opacity="1" rx="10" ry="10" stroke="none" width="141px" x="1889" y="537.8"/>
        <rect fill="#008000" height="19px" opacity="1" rx="10" ry="10" stroke="none" width="116px" x="2066" y="537.8"/>
        <rect fill="#ff00ff" height="19px" opacity="1" rx="10" ry="10" stroke="none" width="142px" x="2216" y="537.8"/>
        <rect fill="#ffff00" height="19px" opacity="1" rx="10" ry="10" stroke="none" width="229px" x="3539" y="537.8"/>
        <line fill="none" stroke="black" x1="5" x2="4989" y1="569.6" y2="569.6"/>
        <rect fill="#000080" height="19px" opacity="1" rx="10" ry="10" stroke="none" width="166px" x="6" y="560.0"/>
        <rect fill="#00ffff" height="19px" opacity="1" rx="10" ry="10" stroke="none" width="55px" x="179" y="560.0"/>
        <rect fill="#0000ff" height="19px" opacity="1" rx="10" ry="10" stroke="none" width="371px" x="700" y="560.0"/>
        <rect fill="#ff0000" height="19px" opacity="1" rx="10" ry="10" stroke="none" width="200px" x="1328" y="560.0"/>
        <rect fill="#00ff00" height="19px" opacity="1" rx="10" ry="10" stroke="none" width="211px" x="1595" y="560.0"/>
        <rect fill="#808000" height="19px" opacity="1" rx="10" ry="10" stroke="none" width="133px" x="1818" y="560.0"/>
        <rect fill="#ff00ff" height="19px" opacity="1" rx="10" ry="10" stroke="none" width="142px" x="2139" y="560.0"/>
        <rect fill="#ff0000" height="19px" opacity="1" rx="10" ry="10" stroke="none" width="142px" x="2391" y="560.0"/>
        <rect fill="#800080" height="19px" opacity="1" rx="10" ry="10" stroke="none" width="76px" x="2602" y="560.0"/>
        <rect fill="#00ff00" height="19px" opacity="1" rx="10" ry="10" stroke="none" width="211px" x="2680" y="560.0"/>
        <rect fill="#808000" height="19px" opacity="1" rx="10" ry="10" stroke="none" width="133px" x="2903" y="560.0"/>
        <rect fill="#ff00ff" height="19px" opacity="1" rx="10" ry="10" stroke="none" width="142px" x="3224" y="560.0"/>
        <rect fill="#ffff00" height="19px" opacity="1" rx="10" ry="10" stroke="none" width="178px" x="4549" y="560.0"/>
        <line fill="none" stroke="black" x1="5" x2="4045" y1="591.8" y2="591.8"/>
        <rect fill="#000080" height="19px" opacity="1" rx="10" ry="10" stroke="none" width="168px" x="6" y="582.1999999999999"/>
        <rect fill="#00ffff" height="19px" opacity="1" rx="10" ry="10" stroke="none" width="55px" x="179" y="582.1999999999999"/>
        <rect fill="#0000ff" height="19px" opacity="1" rx="10" ry="10" stroke="none" width="371px" x="700" y="582.1999999999999"/>
        <rect fill="#ff0000" height="19px" opacity="1" rx="10" ry="10" stroke="none" width="200px" x="1328" y="582.1999999999999"/>
        <rect fill="#800080" height="19px" opacity="1" rx="10" ry="10" stroke="none" width="64px" x="1594" y="582.1999999999999"/>
        <rect fill="#800080" height="19px" opacity="1" rx="10" ry="10" stroke="none" width="72px" x="1662" y="582.1999999999999"/>
        <rect fill="#00ff00" height="19px" opacity="1" rx="10" ry="10" stroke="none" width="211px" x="1736" y="582.1999999999999"/>
        <rect fill="#800000" height="19px" opacity="1" rx="10" ry="10" stroke="none" width="141px" x="1953" y="582.1999999999999"/>
        <rect fill="#008000" height="19px" opacity="1" rx="10" ry="10" stroke="none" width="115px" x="2131" y="582.1999999999999"/>
        <rect fill="#ff00ff" height="19px" opacity="1" rx="10" ry="10" stroke="none" width="142px" x="2280" y="582.1999999999999"/>
        <rect fill="#ffff00" height="19px" opacity="1" rx="10" ry="10" stroke="none" width="241px" x="3603" y="582.1999999999999"/>
        <line fill="none" stroke="black" x1="5" x2="5074" y1="614.0" y2="614.0"/>
        <rect fill="#000080" height="19px" opacity="1" rx="10" ry="10" stroke="none" width="168px" x="6" y="604.4"/>
        <rect fill="#00ffff" height="19px" opacity="1" rx="10" ry="10" stroke="none" width="56px" x="178" y="604.4"/>
        <rect fill="#0000ff" height="19px" opacity="1" rx="10" ry="10" stroke="none" width="371px" x="700" y="604.4"/>
        <rect fill="#ff0000" height="19px" opacity="1" rx="10" ry="10" stroke="none" width="199px" x="1328" y="604.4"/>
        <rect fill="#00ff00" height="19px" opacity="1" rx="10" ry="10" stroke="none" width="211px" x="1594" y="604.4"/>
        <rect fill="#800000" height="19px" opacity="1" rx="10" ry="10" stroke="none" width="141px" x="1811" y="604.4"/>
        <rect fill="#008000" height="19px" opacity="1" rx="10" ry="10" stroke="none" width="115px" x="1989" y="604.4"/>
        <rect fill="#ff00ff" height="19px" opacity="1" rx="10" ry="10" stroke="none" width="142px" x="2138" y="604.4"/>
        <rect fill="#800080" height="19px" opacity="1" rx="10" ry="10" stroke="none" width="72px" x="2691" y="604.4"/>
        <rect fill="#00ff00" height="19px" opacity="1" rx="10" ry="10" stroke="none" width="211px" x="2765" y="604.4"/>
        <rect fill="#800000" height="19px" opacity="1" rx="10" ry="10" stroke="none" width="141px" x="2982" y="604.4"/>
        <rect fill="#008000" height="19px" opacity="1" rx="10" ry="10" stroke="none" width="115px" x="3160" y="604.4"/>
        <rect fill="#ff00ff" height="19px" opacity="1" rx="10" ry="10" stroke="none" width="142px" x="3309" y="604.4"/>
        <rect fill="#ffff00" height="19px" opacity="1" rx="10" ry="10" stroke="none" width="236px" x="4634" y="604.4"/>
        <text fill="black" style="font-size:22px; font-family:Courier New" x="5079" y="22.2">M31182.1/1-3989</text>
        <text fill="black" style="font-size:22px; font-family:Courier New" x="5079" y="44.4">AF144617.2/1-3990</text>
        <text fill="black" style="font-size:22px; font-family:Courier New" x="5079" y="66.6">AJ133738.1/1-3989</text>
        <text fill="black" style="font-size:22px; font-family:Courier New" x="5079" y="88.8">AF268278.1/1-4041</text>
        <text fill="black" style="font-size:22px; font-family:Courier New" x="5079" y="111.0">CQ867015.1/1-3989</text>
        <text fill="black" style="font-size:22px; font-family:Courier New" x="5079" y="133.2">JQ612705.1/1-4002</text>
        <text fill="black" style="font-size:22px; font-family:Courier New" x="5079" y="155.39999999999998">KJ463423.1/1-3992</text>
        <text fill="black" style="font-size:22px; font-family:Courier New" x="5079" y="177.6">KJ627180.1/1-4001</text>
        <text fill="black" style="font-size:22px; font-family:Courier New" x="5079" y="199.79999999999998">LC006970.1/1-4021</text>
        <text fill="black" style="font-size:22px; font-family:Courier New" x="5079" y="221.99999999999997">KU563155.1/1-4002</text>
        <text fill="black" style="font-size:22px; font-family:Courier New" x="5079" y="244.2">MH806438.1/1-4005</text>
        <text fill="black" style="font-size:22px; font-family:Courier New" x="5079" y="266.4">MH806436.1/1-4018</text>
        <text fill="black" style="font-size:22px; font-family:Courier New" x="5079" y="288.59999999999997">MH806434.1/1-4020</text>
        <text fill="black" style="font-size:22px; font-family:Courier New" x="5079" y="310.79999999999995">MH231133.1/1-4020</text>
        <text fill="black" style="font-size:22px; font-family:Courier New" x="5079" y="333.0">MH231129.1/1-4001</text>
        <text fill="black" style="font-size:22px; font-family:Courier New" x="5079" y="355.2">MH231127.1/1-4029</text>
        <text fill="black" style="font-size:22px; font-family:Courier New" x="5079" y="377.4">MH231124.1/1-4020</text>
        <text fill="black" style="font-size:22px; font-family:Courier New" x="5079" y="399.59999999999997">OQ784258.1/1-3988</text>
        <text fill="black" style="font-size:22px; font-family:Courier New" x="5079" y="421.79999999999995">NC_001461.1/1-3989</text>
        <text fill="black" style="font-size:22px; font-family:Courier New" x="5079" y="444.0">NC_003678.1/1-3990</text>
        <text fill="black" style="font-size:22px; font-family:Courier New" x="5079" y="466.2">AB078952.1/1-4198</text>
        <text fill="black" style="font-size:22px; font-family:Courier New" x="5079" y="488.4">AB078951.1/1-4198</text>
        <text fill="black" style="font-size:22px; font-family:Courier New" x="5079" y="510.6">AB558134.1/1-4262</text>
        <text fill="black" style="font-size:22px; font-family:Courier New" x="5079" y="532.8">AB558133.1/1-4262</text>
        <text fill="black" style="font-size:22px; font-family:Courier New" x="5079" y="555.0">M96687.1/1-3976</text>
        <text fill="black" style="font-size:22px; font-family:Courier New" x="5079" y="577.2">U86599.1/1-4984</text>
        <text fill="black" style="font-size:22px; font-family:Courier New" x="5079" y="599.4">LT907991.1/1-4040</text>
        <text fill="black" style="font-size:22px; font-family:Courier New" x="5079" y="621.6">MK775204.1/1-5069</text>
        <rect fill="#0000ff" height="19px" stroke="none" width="19px" x="5" y="648.6"/>
        <text fill="black" style="font-size:18px; font-family:Courier New" x="29.2" y="665.8000000000001">28</text>
        <text fill="black" style="font-size:18px; font-family:Courier New; font-weight:bold" x="72.37" y="665.8000000000001">Pestivirus_E2</text>
        <text fill="black" style="font-size:18px; font-family:Courier New" x="288.21999999999997" y="665.8000000000001">Pestivirus envelope glycoprotein E2</text>
        <rect fill="#00ff00" height="19px" stroke="none" width="19px" x="5" y="670.8000000000001"/>
        <text fill="black" style="font-size:18px; font-family:Courier New" x="29.2" y="688.0000000000001">28</text>
        <text fill="black" style="font-size:18px; font-family:Courier New; font-weight:bold" x="72.37" y="688.0000000000001">Peptidase_S31</text>
        <text fill="black" style="font-size:18px; font-family:Courier New" x="288.21999999999997" y="688.0000000000001">Pestivirus NS3 polyprotein peptidase S31</text>
        <rect fill="#ff0000" height="19px" stroke="none" width="19px" x="5" y="693.0"/>
        <text fill="black" style="font-size:18px; font-family:Courier New" x="29.2" y="710.2">28</text>
        <text fill="black" style="font-size:18px; font-family:Courier New; font-weight:bold" x="72.37" y="710.2">Peptidase_C74</text>
        <text fill="black" style="font-size:18px; font-family:Courier New" x="288.21999999999997" y="710.2">Pestivirus NS2 peptidase</text>
        <rect fill="#00ffff" height="19px" stroke="none" width="19px" x="5" y="715.2"/>
        <text fill="black" style="font-size:18px; font-family:Courier New" x="29.2" y="732.4000000000001">28</text>
        <text fill="black" style="font-size:18px; font-family:Courier New; font-weight:bold" x="72.37" y="732.4000000000001">Capsid_pestivir</text>
        <text fill="black" style="font-size:18px; font-family:Courier New" x="288.21999999999997" y="732.4000000000001">Capsid protein C, pestivirus</text>
        <rect fill="#ff00ff" height="19px" stroke="none" width="19px" x="5" y="737.4"/>
        <text fill="black" style="font-size:18px; font-family:Courier New" x="29.2" y="754.6">28</text>
        <text fill="black" style="font-size:18px; font-family:Courier New; font-weight:bold" x="72.37" y="754.6">Flav_NS3-hel_C</text>
        <text fill="black" style="font-size:18px; font-family:Courier New" x="288.21999999999997" y="754.6">Flavivirus NS3 helicase, C-terminal helical domain</text>
        <rect fill="#ffff00" height="19px" stroke="none" width="19px" x="5" y="759.6"/>
        <text fill="black" style="font-size:18px; font-family:Courier New" x="29.2" y="776.8000000000001">28</text>
        <text fill="black" style="font-size:18px; font-family:Courier New; font-weight:bold" x="72.37" y="776.8000000000001">RdRP_3</text>
        <text fill="black" style="font-size:18px; font-family:Courier New" x="288.21999999999997" y="776.8000000000001">Viral RNA dependent RNA polymerase</text>
        <rect fill="#000080" height="19px" stroke="none" width="19px" x="5" y="781.8"/>
        <text fill="black" style="font-size:18px; font-family:Courier New" x="29.2" y="799.0">27</text>
        <text fill="black" style="font-size:18px; font-family:Courier New; font-weight:bold" x="72.37" y="799.0">Peptidase_C53</text>
        <text fill="black" style="font-size:18px; font-family:Courier New" x="288.21999999999997" y="799.0">Pestivirus Npro endopeptidase C53</text>
        <rect fill="#008000" height="19px" stroke="none" width="19px" x="5" y="804.0"/>
        <text fill="black" style="font-size:18px; font-family:Courier New" x="29.2" y="821.2">27</text>
        <text fill="black" style="font-size:18px; font-family:Courier New; font-weight:bold" x="72.37" y="821.2">Helicase_C</text>
        <text fill="black" style="font-size:18px; font-family:Courier New" x="288.21999999999997" y="821.2">Helicase conserved C-terminal domain</text>
        <rect fill="#800000" height="19px" stroke="none" width="19px" x="5" y="826.2"/>
        <text fill="black" style="font-size:18px; font-family:Courier New" x="29.2" y="843.4000000000001">25</text>
        <text fill="black" style="font-size:18px; font-family:Courier New; font-weight:bold" x="72.37" y="843.4000000000001">Flavi_DEAD</text>
        <text fill="black" style="font-size:18px; font-family:Courier New" x="288.21999999999997" y="843.4000000000001">Flavivirus DEAD domain</text>
        <rect fill="#008080" height="19px" stroke="none" width="19px" x="5" y="848.4"/>
        <text fill="black" style="font-size:18px; font-family:Courier New" x="29.2" y="865.6">24</text>
        <text fill="black" style="font-size:18px; font-family:Courier New; font-weight:bold" x="72.37" y="865.6">Jiv90</text>
        <text fill="black" style="font-size:18px; font-family:Courier New" x="288.21999999999997" y="865.6">Cleavage inducing molecular chaperone</text>
        <rect fill="#800080" height="19px" stroke="none" width="19px" x="5" y="870.6"/>
        <text fill="black" style="font-size:18px; font-family:Courier New" x="29.2" y="887.8000000000001">4</text>
        <text fill="black" style="font-size:18px; font-family:Courier New; font-weight:bold" x="72.37" y="887.8000000000001">ubiquitin</text>
        <text fill="black" style="font-size:18px; font-family:Courier New" x="288.21999999999997" y="887.8000000000001">Ubiquitin family</text>
        <rect fill="#808000" height="19px" stroke="none" width="19px" x="5" y="892.8"/>
        <text fill="black" style="font-size:18px; font-family:Courier New" x="29.2" y="910.0">3</text>
        <text fill="black" style="font-size:18px; font-family:Courier New; font-weight:bold" x="72.37" y="910.0">DEAD</text>
        <text fill="black" style="font-size:18px; font-family:Courier New" x="288.21999999999997" y="910.0">DEAD/DEAH box helicase</text>
        <rect fill="#000040" height="19px" stroke="none" width="19px" x="5" y="915.0"/>
        <text fill="black" style="font-size:18px; font-family:Courier New" x="29.2" y="932.2">1</text>
        <text fill="black" style="font-size:18px; font-family:Courier New; font-weight:bold" x="72.37" y="932.2">Peptidase_S29</text>
        <text fill="black" style="font-size:18px; font-family:Courier New" x="288.21999999999997" y="932.2">Hepatitis C virus NS3 protease</text>
    </g>
</svg>
